<svg version="1.2" xmlns="http://www.w3.org/2000/svg" viewBox="0 0 949 245" width="949" height="245">
	<title>Design sem nome</title>
	<style>
		.s0 { fill: #133157 } 
		.s1 { fill: #ffffff } 
	</style>
	<path id="Preencher com Cor Sólida 1" class="s0" d="m7 20l35 209h901l-37-209z"/>
	<path id="NEXO STORE" class="s1" aria-label="NEXO STORE"  d="m107.4 167.8l-15.2-0.1v-90.8h17.2l38.4 61.1 1.7 5-0.2-5v-61.1h15.7v90.8h-15.7l-40.1-63.6-2-4.5 0.2 4.3zm137.1 0h-56.5v-90.9h54.5v12.9h-36.6v65.1h38.6zm-6.2-41.4h-27.6q0.8-2.7 2.3-5.7 1.5-2.9 4-4.9 2.5-2 6.2-2h15.1zm91.6 41.4h-19.4l-54.3-90.9h19.7l15.4 29.9 1.2 3.8 1-3.8 15.4-29.9h19.6l-27.1 44.9zm-56 0h-19.1l24.7-40.7q1.6 2.2 3.5 6 1.8 3.9 2.5 8.3 0.7 4.4-1.5 8.2zm110.5 1.8q-14.4 0-24.5-6.2-10.1-6.2-15.4-16.9-5.3-10.7-5.3-24.2 0-9.8 3-18.3 3-8.6 8.9-15.1 5.8-6.5 14.1-10.1 8.5-3.7 19.2-3.7 12.3 0 20.8 4.2 8.7 4.2 14 11.1 5.4 6.9 7.9 15.3 2.5 8.3 2.5 16.6 0 9.2-3 17.7-3 8.5-8.7 15.2-5.8 6.6-14.2 10.5-8.4 3.9-19.3 3.9zm0-12.9q6.9 0 12.9-4 6-4 9.7-11.7 3.7-7.7 3.7-18.7 0-9.8-3.1-17.5-3.2-7.8-9-12.3-5.9-4.5-14.2-4.5-8.6 0-14.5 4.7-5.8 4.8-8.8 12.6-2.9 7.8-2.9 17 0 6.5 1.7 12.7 1.7 6.1 4.9 11 3.3 4.9 8.3 7.8 4.9 2.9 11.3 2.9zm114.7 12.8q-5.4 0-12.5-1.5-7.1-1.5-15.7-5.4l4.8-11.6q6.7 3.2 12.7 4.4 5.9 1.2 10.7 1.2 6.6 0 11-3.5 4.3-3.5 4.3-8.4 0-4.5-3-7.8-3.1-3.3-7.9-6-4.8-2.7-10.3-5.6-5.4-2.8-10.2-6.3-4.8-3.5-7.9-8.3-3-4.8-3-11.6 0-8.2 3.7-13.4 3.8-5.3 10.1-7.8 6.2-2.6 13.7-2.6 5.7 0 11.1 0.9 5.5 0.7 13.4 3.3l-4.7 11.3q-5.5-1.6-10-2.3-4.6-0.7-8.7-0.7-5.6 0-9 2.8-3.4 2.7-3.4 7 0 4.2 3.1 7.4 3.1 3.2 7.9 5.8 4.9 2.7 10.3 5.7 5.5 2.9 10.3 6.6 4.8 3.7 7.9 8.9 3.1 5.1 3.1 12.3 0 8.1-4 13.7-4 5.6-11.2 8.5-7.1 3-16.6 3zm79.7-1.7h-17.7v-78h-23.8v-12.8h65.3v12.8h-23.8zm75.3 1.8q-14.5 0-24.6-6.2-10.1-6.2-15.4-16.9-5.3-10.7-5.3-24.2 0-9.8 3-18.3 3.1-8.6 8.9-15.1 5.8-6.5 14.2-10.1 8.4-3.7 19.2-3.7 12.2 0 20.8 4.2 8.6 4.2 14 11.1 5.3 6.9 7.8 15.3 2.5 8.3 2.5 16.6 0 9.2-3 17.7-3 8.5-8.7 15.2-5.8 6.6-14.2 10.5-8.4 3.9-19.2 3.9zm0-12.9q6.8 0 12.8-4 6-4 9.7-11.7 3.7-7.7 3.7-18.7 0-9.8-3.1-17.5-3.1-7.8-9-12.3-5.9-4.5-14.1-4.5-8.7 0-14.5 4.7-5.9 4.8-8.9 12.6-2.9 7.8-2.9 17 0 6.5 1.7 12.7 1.7 6.1 4.9 11 3.3 4.9 8.3 7.8 4.9 2.9 11.4 2.9zm76.3 11.1h-18v-89.7q6.8-1.1 11.5-1.8 4.7-0.6 8.6-0.8 3.9-0.3 8.4-0.3 9.8 0 18 3.3 8.1 3.3 12.9 9.5 4.9 6.3 4.9 15.1 0 7.4-3.5 12.9-3.3 5.6-8.9 9l-3.5 1.3 2.8 1.4q3.8 3.3 5.9 7.7 2.1 4.4 3.6 9.6 1.5 5.3 3.1 11.1 1.6 5.7 4.4 11.7h-18.4q-2.2-4.8-3.6-10.1-1.4-5.4-2.8-10.6-1.4-5.2-3.4-9.6-2.1-4.3-5.6-7-2.6 0.2-5.6 0-3-0.2-6.1-1.2 0.9-2.3 2.3-4.9 1.5-2.6 3.5-4.4 2.1-1.9 4.9-2.2 3.4-0.3 6.3-2.2 2.8-2 4.5-5.2 1.7-3.2 1.7-7.3 0-4.3-2.3-7.7-2.3-3.4-6.3-5.4-3.9-1.9-8.8-1.9-3.3 0-5.2 0.2-1.9 0.2-5.3 0.5zm124 0h-56.5v-90.8h54.5v12.8h-36.6v65.2h38.6zm-6.2-41.4h-27.6q0.8-2.8 2.3-5.7 1.5-2.9 4-4.9 2.5-2 6.2-2h15.1z"/>
</svg>